<svg version="1.2" xmlns="http://www.w3.org/2000/svg" viewBox="0 0 512 512" width="512" height="512"><style>.a{fill:#6cc446}</style><path fill-rule="evenodd" class="a" d="m255.7 49c2.7 0 5.5 0.6 8.1 1.8l114.3 48.4c13.3 5.7 23.3 18.9 23.2 34.8-0.3 60.2-25.1 170.3-129.6 220.4-10.2 4.8-21.9 4.8-32.1 0-104.5-50.1-129.3-160.2-129.6-220.4-0.1-15.9 9.9-29.1 23.2-34.8l114.4-48.4c2.5-1.2 5.3-1.8 8.1-1.8zm0 40.5v229.4c83.7-40.5 106.2-130.3 106.8-184.1z"/><path class="a" d="m79.9 421.9v25.7q0 1.5-1 2.4-1 1-2.4 1h-0.1q-1.3 0-2.3-1-1.1-0.9-1.1-2.4v-25.7q0-3.1-2.1-5.4-2.3-2.2-5.4-2.2-3.2 0-5.4 2.2-2.2 2.3-2.2 5.4v25.7q0 1.5-1 2.4-1 1-2.4 1h-0.1q-1.3 0-2.3-1-1-0.9-1-2.4v-25.7q0-5.9 4.2-10.2 4.2-4.2 10.2-4.2 5.9 0 10.1 4.2 4.3 4.3 4.3 10.2zm21.1 3.9q-3.9 0-6.6 2.7-2.6 2.7-2.6 6.6v0.1l15.5-6.9q-2-2.5-6.3-2.5zm14.5 2.5q0.4 0.7 0.4 1.4 0 0.6-0.3 1.2-0.4 1.3-1.7 1.9-3.9 1.7-10.3 4.6-7.9 3.6-9.2 4.2 2.1 2.7 6.6 2.7 3 0 5.4-1.8 2.3-1.7 3.3-4.4 0.8-2.3 3.2-2.3 1.7 0 2.8 1.4 0.6 0.9 0.6 1.9 0 0.6-0.2 1.2-1.6 4.7-5.8 7.7-4.1 3-9.3 3-6.6 0-11.3-4.7-4.8-4.7-4.8-11.3 0-6.7 4.8-11.4 4.7-4.7 11.3-4.7 4.8 0 8.7 2.7 3.9 2.5 5.8 6.7zm11.7-6v2.5q0 2.7 1.9 4.7 2 1.9 4.7 1.9 2.8 0 4.7-1.9 2-2 2-4.7v-2.5q0-1.4 1-2.4 1-1 2.4-1 1.4 0 2.4 1 1 1 1 2.4v2.5q0 6.7-4.5 10 4.5 3.4 4.5 10.1v2.7q0 1.5-1 2.4-1 1-2.4 1-1.4 0-2.4-1-1-0.9-1-2.4v-2.7q0-2.8-2-4.7-1.9-1.9-4.7-1.9-2.7 0-4.7 1.9-1.9 1.9-1.9 4.7v2.7q0 1.5-1 2.4-1 1-2.4 1h-0.1q-1.3 0-2.3-1-1-0.9-1-2.4v-2.7q0-6.7 4.4-10.1-4.4-3.3-4.4-10v-2.5q0-1.4 1-2.4 1-1 2.3-1h0.1q1.4 0 2.4 1 1 1 1 2.4zm29-14.8q1.4 0 2.4 1 1 1 1 2.4v8h4.2q1.3 0 2.3 1 1 1 1 2.4v0.1q0 1.4-1 2.4-1 1-2.3 1h-4.2v16.5q0 0.8 0.6 1.3 0.5 0.6 1.4 0.6h2.2q1.3 0 2.3 1 1 1 1 2.4 0 1.5-1 2.4-1 1-2.3 1h-2.2q-3.7 0-6.3-2.6-2.5-2.5-2.5-6.1v-31.4q0-1.4 1-2.4 1-1 2.4-1zm10.9 54.9h-1.6q-1.3 0-2.3-1-1-1-1-2.3v-0.1q0-1.4 1-2.4 1-1 2.3-1h1.6q2.3 0 3.9-1.6 1.6-1.6 1.6-3.8v-27.9q0-1.4 1-2.4 1-1 2.4-1 1.4 0 2.4 1 1 1 1 2.4v27.9q-0.1 5.1-3.6 8.6-3.5 3.6-8.7 3.6zm8.9-47.1q-1.7 0-2.8-1.2-1.1-1.1-1.1-2.7 0-1.6 1.1-2.8 1.1-1.1 2.8-1.1 1.5 0 2.7 1.1 1.2 1.2 1.2 2.8 0 1.6-1.2 2.7-1.2 1.2-2.7 1.2zm23.8 10.5h-5.4q-1.2 0-2 0.8-0.9 0.9-0.9 2.1 0 1.6 1.6 2.5 0.6 0.3 4.7 1.3 3.3 1 4.9 2.5 2.3 2.2 2.3 6.3 0 4-2.8 6.9-2.9 2.8-6.9 2.8h-7.3q-1.3 0-2.3-1-1-0.9-1-2.4 0-1.4 1-2.4 1-1 2.3-1h7.6q1.2 0 2-0.9 0.9-0.8 0.9-2 0-1.5-1.6-2.3-0.4-0.2-4.7-1.4-3.3-1-4.9-2.6-2.3-2.2-2.3-6.3 0-4.1 2.8-6.9 2.9-2.9 6.9-2.9h5.1q1.4 0 2.4 1 1 1 1 2.4v0.1q0 1.4-1 2.4-1 1-2.4 1zm36.4 15v-29.9q0-1.4 0.9-2.4 1-1 2.4-1h0.1q1.4 0 2.4 1 1 1 1 2.4v29.9q0 4.2-3 7.2-3 3-7.2 3h-5.2q-1.3 0-2.3-1-1-0.9-1-2.4 0-1.4 1-2.4 1-1 2.3-1h5.2q1.4 0 2.4-1 1-1 1-2.4zm19.7-29.9v26.7q0 2.7 1.9 4.7 1.9 1.9 4.6 1.9 2.8 0 4.7-1.9 1.9-2 1.9-4.7v-26.7q0-1.4 1-2.4 1-1 2.4-1h0.1q1.4 0 2.3 1 1 1 1 2.4v26.7q0 2.7 2 4.7 1.9 1.9 4.6 1.9 2.8 0 4.7-1.9 1.9-2 1.9-4.7v-26.7q0-1.4 1-2.4 1-1 2.4-1 1.4 0 2.4 1 1 1 1 2.4v26.7q0 5.6-3.9 9.5-4 3.9-9.5 3.9-6.6 0-10-4.4-3.3 4.4-10 4.4-5.5 0-9.4-3.9-3.9-3.9-3.9-9.5v-26.7q0-1.4 1-2.4 1-1 2.3-1h0.1q1.4 0 2.4 1 1 1 1 2.4zm71.3 0q0 1.4-1 2.4-1 1-2.3 1h-6.8v33.3q0 1.4-1 2.4-1 1-2.4 1h-0.1q-1.4 0-2.4-1-0.9-1-0.9-2.4v-33.3h-6.8q-1.4 0-2.4-1-1-1-1-2.4 0-1.4 1-2.4 1-1 2.4-1h20.4q1.3 0 2.3 1 1 1 1 2.4zm49.7 11v25.7q0 1.5-1 2.4-1 1-2.4 1h-0.1q-1.3 0-2.3-1-1.1-0.9-1.1-2.4v-12.4h-15.1v12.4q0 1.5-1 2.4-1 1-2.4 1h-0.1q-1.3 0-2.3-1-1-0.9-1-2.4v-25.7q0-5.9 4.2-10.2 4.2-4.2 10.2-4.2 5.9 0 10.1 4.2 4.3 4.3 4.3 10.2zm-22 6.5h15.1v-6.5q0-3.1-2.1-5.4-2.3-2.2-5.4-2.2-3.2 0-5.4 2.2-2.2 2.3-2.2 5.4zm34.7-6.1v15.2q0 2.8 1.9 4.7 2 2 4.8 2 2.7 0 4.7-2 1.9-1.9 1.9-4.7v-15.2q0-1.4 1-2.4 1-1 2.4-1 1.4 0 2.4 1 1 1 1 2.4v15.2q0 5.6-4 9.5-3.9 4-9.4 4-5.6 0-9.6-4-3.9-3.9-3.9-9.5v-15.2q0-1.4 1-2.4 1-1 2.4-1 1.4 0 2.4 1 1 1 1 2.4zm29.6-14.8q1.4 0 2.4 1 1 1 1 2.4v8h4.2q1.3 0 2.3 1 1 1 1 2.4v0.1q0 1.4-1 2.3-1 1-2.3 1h-4.2v16.5q0 0.9 0.6 1.4 0.5 0.6 1.4 0.6h2.2q1.3 0 2.3 1 1 1 1 2.4 0 1.4-1 2.4-1 1-2.3 1h-2.2q-3.7 0-6.3-2.6-2.5-2.6-2.5-6.2v-31.3q0-1.4 1-2.4 1-1 2.4-1zm18 0q1.4 0 2.4 1 1 1 1 2.4v9.7q2.2-1.7 6.7-1.7 5.5 0 9.4 4 4 3.9 4 9.5v15.2q0 1.4-1 2.4-1 1-2.4 1-1.4 0-2.4-1-1-1-1-2.4v-15.2q0-2.8-1.9-4.7-2-2-4.7-2-2.8 0-4.8 2-1.9 1.9-1.9 4.7v15.2q0 1.4-1 2.4-1 1-2.4 1-1.4 0-2.4-1-1-1-1-2.4v-36.7q0-1.4 1-2.4 1-1 2.4-1z"/></svg>